<?xml version="1.0" encoding="UTF-8"?>
<svg width="18px" height="18px" viewBox="0 0 18 18" version="1.1" xmlns="http://www.w3.org/2000/svg" xmlns:xlink="http://www.w3.org/1999/xlink">
    <!-- Generator: Sketch 61 (89581) - https://sketch.com -->
    <title>形状结合</title>
    <desc>Created with Sketch.</desc>
    <g id="移动端" stroke="none" stroke-width="1" fill="none" fill-rule="evenodd">
        <g id="主页" transform="translate(-61.000000, -151.000000)" fill="#FFFFFF">
            <g id="编组-5" transform="translate(20.000000, 118.000000)">
                <g id="Group" transform="translate(30.000000, 22.000000)">
                    <path d="M20.1818182,11 C21.1859723,11 22,11.8140277 22,12.8181818 L22,17.999 L27.1818182,18 C28.1859723,18 29,18.8140277 29,19.8181818 L29,20.1818182 C29,21.1859723 28.1859723,22 27.1818182,22 L22,22 L22,27.1818182 C22,28.1859723 21.1859723,29 20.1818182,29 L19.8181818,29 C18.8140277,29 18,28.1859723 18,27.1818182 L18,22 L12.8181818,22 C11.8140277,22 11,21.1859723 11,20.1818182 L11,19.8181818 C11,18.8140277 11.8140277,18 12.8181818,18 L18,18 L18,12.8181818 C18,11.8140277 18.8140277,11 19.8181818,11 L20.1818182,11 Z" id="形状结合"></path>
                </g>
            </g>
        </g>
    </g>
</svg>