<svg width="16" height="16" viewBox="0 0 16 16" fill="none" xmlns="http://www.w3.org/2000/svg">
<rect x="4.5" y="4.5" width="7" height="7" rx="2" fill="white"/>
<path fill-rule="evenodd" clip-rule="evenodd" d="M13.767 6.01062L14.7114 7.18239C15.0962 7.66334 15.0962 8.34541 14.7114 8.82636L13.767 9.99813C13.6184 10.1905 13.5047 10.4179 13.4785 10.6802L13.3123 12.1668C13.2423 12.7789 12.7614 13.2598 12.1493 13.3298L10.6627 13.4959C10.4091 13.5222 10.1818 13.6184 9.98938 13.767L8.81761 14.7114C8.33666 15.0962 7.65459 15.0962 7.17364 14.7114L6.00187 13.767C5.80949 13.6184 5.58214 13.5047 5.3198 13.4785L3.83323 13.3123C3.22111 13.2423 2.74016 12.7614 2.67021 12.1493L2.50406 10.6627C2.47783 10.4091 2.38164 10.1818 2.23298 9.98938L1.28857 8.81761C0.90381 8.33666 0.90381 7.65459 1.28857 7.17364L2.23298 6.00187C2.38164 5.80949 2.49532 5.58214 2.52155 5.3198L2.6877 3.83323C2.75765 3.22111 3.2386 2.74016 3.85072 2.67021L5.33729 2.50406C5.59088 2.47783 5.81824 2.38164 6.01062 2.23298L7.18239 1.28857C7.66334 0.90381 8.34541 0.90381 8.82636 1.28857L9.99813 2.23298C10.1905 2.38164 10.4179 2.49532 10.6802 2.52155L12.1668 2.6877C12.778 2.7571 13.2604 3.23945 13.3298 3.85072L13.4959 5.33729C13.5222 5.59088 13.6184 5.81824 13.767 6.01062ZM4 8.5L6.8 11.2222L12 6.20556L10.8 5L6.8 8.88889L5.2 7.33333L4 8.5Z" fill="#3D75E3"/>
</svg>
