<svg width="498" height="387" viewBox="0 0 498 387" fill="none" xmlns="http://www.w3.org/2000/svg">
<rect width="498" height="387" fill="#EDEFF4"/>
<path d="M228.808 164.6L224.584 165.096V161.88H223.064V165.272L220.344 165.592L220.568 166.984L223.096 166.696C223.128 167.352 223.176 167.992 223.256 168.616L220.024 169.016L220.264 170.44L223.464 170.04C223.528 170.376 223.592 170.728 223.688 171.08C223.88 171.832 224.12 172.52 224.408 173.144C223.064 174.008 221.528 174.68 219.8 175.128L220.68 176.344C222.248 175.928 223.72 175.288 225.096 174.408C225.24 174.632 225.4 174.84 225.56 175.048C226.36 176.024 227.224 176.52 228.12 176.536C229.064 176.536 229.784 175.496 230.264 173.448L228.968 172.6C228.696 174.152 228.36 174.936 227.96 174.936C227.496 174.936 226.984 174.536 226.424 173.768L226.296 173.56C227.336 172.728 228.312 171.752 229.224 170.616L228.056 169.832C227.336 170.744 226.536 171.56 225.64 172.264C225.416 171.688 225.224 171.048 225.064 170.312C225.032 170.152 225 170.008 224.984 169.848L229.912 169.224L229.672 167.8L224.776 168.424C224.712 167.816 224.664 167.192 224.632 166.52L229.048 166.008L228.808 164.6ZM226.84 161.768L225.688 162.504C226.392 163.24 226.952 163.928 227.368 164.552L228.488 163.768C228.104 163.208 227.56 162.536 226.84 161.768ZM217.272 162.056L216.216 163.048C217.416 163.944 218.344 164.76 219 165.512L220.088 164.44C219.32 163.64 218.392 162.856 217.272 162.056ZM216.824 165.784L215.752 166.84C216.872 167.704 217.752 168.52 218.376 169.288L219.496 168.168C218.776 167.368 217.88 166.584 216.824 165.784ZM218.552 170.296C217.848 172.2 217.032 174.056 216.072 175.864L217.512 176.488C218.408 174.728 219.208 172.856 219.928 170.856L218.552 170.296ZM238.536 167.768V170.28H235.128V167.768H238.536ZM240.056 170.28V167.768H243.432V170.28H240.056ZM236.216 164.632H241.048C240.504 165.288 239.992 165.864 239.48 166.344H234.376C235.016 165.832 235.64 165.256 236.216 164.632ZM233.592 166.952V174.808C233.592 175.864 234.136 176.392 235.224 176.392H243.8C244.792 176.36 245.432 175.976 245.72 175.24C245.88 174.792 246.04 174.056 246.168 173.016L244.68 172.536C244.552 173.592 244.408 174.232 244.28 174.456C244.12 174.744 243.784 174.888 243.288 174.92H235.864C235.384 174.92 235.128 174.68 235.128 174.216V171.72H244.968V166.344H241.496C241.992 165.8 242.504 165.16 243.016 164.408V163.256H237.352C237.624 162.904 237.896 162.52 238.152 162.12L236.6 161.784C235.208 163.736 233.544 165.272 231.592 166.376L232.616 167.608C232.936 167.4 233.256 167.176 233.592 166.952ZM252.584 163.112V164.456H254.744V165.48H256.168V164.456H258.392V165.48H259.832V164.456H262.184V163.112H259.832V161.928H258.392V163.112H256.168V161.928H254.744V163.112H252.584ZM257.144 173.544C258.04 174.824 259.464 175.88 261.384 176.712L262.408 175.496C260.712 174.904 259.416 174.152 258.52 173.256H262.216V171.88H257.768L257.96 170.936H261.208V165.864H253.336V170.936H256.616C256.552 171.256 256.472 171.576 256.376 171.88H252.232V173.256H255.704C255.64 173.352 255.56 173.448 255.464 173.576C254.792 174.36 253.672 174.968 252.136 175.4L252.664 176.648C254.52 176.104 255.816 175.368 256.552 174.44C256.76 174.168 256.952 173.864 257.144 173.544ZM251.208 168.872C251.56 169.448 251.96 170.152 252.424 171.016L253.224 169.816C252.536 168.856 251.864 167.976 251.208 167.208V166.312H252.76V164.92H251.208V161.976H249.768V164.92H248.04V166.312H249.768V166.456C249.288 168.216 248.536 169.8 247.528 171.192L248.184 172.872C248.808 171.8 249.336 170.632 249.768 169.352V176.6H251.208V168.872ZM259.832 169.784H254.696V168.968H259.832V169.784ZM254.696 167.848V167.048H259.832V167.848H254.696ZM264.008 164.616V166.088H271.752C271.88 168.024 272.12 169.72 272.456 171.192C273.416 174.728 274.664 176.536 276.2 176.632C277.112 176.616 277.8 175.416 278.28 173.048L276.904 172.344C276.616 174.04 276.344 174.904 276.104 174.92C275.656 174.92 275.096 174.024 274.424 172.248C273.88 170.584 273.512 168.52 273.32 166.088H278.04V164.616H275.896L277.032 164.056C276.584 163.288 276.104 162.6 275.608 161.96L274.36 162.552C274.856 163.16 275.32 163.848 275.736 164.616H273.24C273.192 163.752 273.176 162.856 273.176 161.912H271.608C271.608 162.84 271.624 163.752 271.672 164.616H264.008ZM264.232 168.424V169.848H266.92V173.816C265.912 173.976 264.888 174.12 263.864 174.248L264.216 175.688C266.888 175.304 269.4 174.824 271.736 174.264V172.776C270.648 173.064 269.544 173.32 268.424 173.544V169.848H271.112V168.424H264.232Z" fill="#333333"/>
<path d="M223.368 334.68C222.792 335.896 221.896 336.856 220.68 337.592L221.784 338.536C222.968 337.768 223.912 336.648 224.632 335.176L223.368 334.68ZM226.6 334.568L225.48 335.272C226.6 336.424 227.496 337.496 228.136 338.456L229.352 337.624C228.712 336.744 227.8 335.72 226.6 334.568ZM217.128 332.056L216.104 333.048C217.384 333.912 218.376 334.728 219.08 335.496L220.104 334.472C219.288 333.672 218.296 332.856 217.128 332.056ZM216.744 335.8L215.736 336.808C216.936 337.672 217.88 338.488 218.552 339.256L219.56 338.248C218.792 337.432 217.864 336.616 216.744 335.8ZM218.744 340.328C217.976 342.216 217.048 344.072 215.992 345.864L217.4 346.488C218.36 344.728 219.224 342.84 219.992 340.824L218.744 340.328ZM223.144 340.84C222.344 342.28 221.112 343.48 219.448 344.44L220.232 345.72C222.088 344.424 223.432 342.792 224.264 340.84H224.424V346.584H225.896V340.84H226.072C226.76 342.584 227.912 344.168 229.544 345.576L230.504 344.376C228.968 343.32 227.864 342.152 227.16 340.84H229.96V339.448H225.896V337.832H224.424V339.448H220.392V340.84H223.144ZM229.72 332.424H220.616V335.64H222.04V333.8H228.28V335.576H229.72V332.424ZM238.536 337.768V340.28H235.128V337.768H238.536ZM240.056 340.28V337.768H243.432V340.28H240.056ZM236.216 334.632H241.048C240.504 335.288 239.992 335.864 239.48 336.344H234.376C235.016 335.832 235.64 335.256 236.216 334.632ZM233.592 336.952V344.808C233.592 345.864 234.136 346.392 235.224 346.392H243.8C244.792 346.36 245.432 345.976 245.72 345.24C245.88 344.792 246.04 344.056 246.168 343.016L244.68 342.536C244.552 343.592 244.408 344.232 244.28 344.456C244.12 344.744 243.784 344.888 243.288 344.92H235.864C235.384 344.92 235.128 344.68 235.128 344.216V341.72H244.968V336.344H241.496C241.992 335.8 242.504 335.16 243.016 334.408V333.256H237.352C237.624 332.904 237.896 332.52 238.152 332.12L236.6 331.784C235.208 333.736 233.544 335.272 231.592 336.376L232.616 337.608C232.936 337.4 233.256 337.176 233.592 336.952ZM252.584 333.112V334.456H254.744V335.48H256.168V334.456H258.392V335.48H259.832V334.456H262.184V333.112H259.832V331.928H258.392V333.112H256.168V331.928H254.744V333.112H252.584ZM257.144 343.544C258.04 344.824 259.464 345.88 261.384 346.712L262.408 345.496C260.712 344.904 259.416 344.152 258.52 343.256H262.216V341.88H257.768L257.96 340.936H261.208V335.864H253.336V340.936H256.616C256.552 341.256 256.472 341.576 256.376 341.88H252.232V343.256H255.704C255.64 343.352 255.56 343.448 255.464 343.576C254.792 344.36 253.672 344.968 252.136 345.4L252.664 346.648C254.52 346.104 255.816 345.368 256.552 344.44C256.76 344.168 256.952 343.864 257.144 343.544ZM251.208 338.872C251.56 339.448 251.96 340.152 252.424 341.016L253.224 339.816C252.536 338.856 251.864 337.976 251.208 337.208V336.312H252.76V334.92H251.208V331.976H249.768V334.92H248.04V336.312H249.768V336.456C249.288 338.216 248.536 339.8 247.528 341.192L248.184 342.872C248.808 341.8 249.336 340.632 249.768 339.352V346.6H251.208V338.872ZM259.832 339.784H254.696V338.968H259.832V339.784ZM254.696 337.848V337.048H259.832V337.848H254.696ZM264.008 334.616V336.088H271.752C271.88 338.024 272.12 339.72 272.456 341.192C273.416 344.728 274.664 346.536 276.2 346.632C277.112 346.616 277.8 345.416 278.28 343.048L276.904 342.344C276.616 344.04 276.344 344.904 276.104 344.92C275.656 344.92 275.096 344.024 274.424 342.248C273.88 340.584 273.512 338.52 273.32 336.088H278.04V334.616H275.896L277.032 334.056C276.584 333.288 276.104 332.6 275.608 331.96L274.36 332.552C274.856 333.16 275.32 333.848 275.736 334.616H273.24C273.192 333.752 273.176 332.856 273.176 331.912H271.608C271.608 332.84 271.624 333.752 271.672 334.616H264.008ZM264.232 338.424V339.848H266.92V343.816C265.912 343.976 264.888 344.12 263.864 344.248L264.216 345.688C266.888 345.304 269.4 344.824 271.736 344.264V342.776C270.648 343.064 269.544 343.32 268.424 343.544V339.848H271.112V338.424H264.232Z" fill="#333333"/>
<rect x="59" y="50" width="375" height="88" fill="white"/>
<path d="M123.72 121H125.987V110.225H129.898V108.317H119.817V110.225H123.72V121ZM134.086 121.193C136.96 121.193 138.709 119.312 138.709 116.201V116.184C138.709 113.09 136.952 111.209 134.086 111.209C131.23 111.209 129.463 113.099 129.463 116.184V116.201C129.463 119.312 131.204 121.193 134.086 121.193ZM134.086 119.418C132.566 119.418 131.696 118.231 131.696 116.21V116.192C131.696 114.171 132.566 112.976 134.086 112.976C135.598 112.976 136.468 114.171 136.468 116.192V116.21C136.468 118.231 135.607 119.418 134.086 119.418ZM140.595 121H142.783V117.625L143.548 116.843L146.633 121H149.269L145.138 115.454L149.006 111.394H146.474L142.932 115.331H142.783V107.676H140.595V121ZM154.134 121.193C156.744 121.193 158.028 119.69 158.335 118.451L158.362 118.372H156.279L156.252 118.434C156.041 118.873 155.364 119.471 154.178 119.471C152.693 119.471 151.761 118.469 151.735 116.746H158.449V116.025C158.449 113.125 156.762 111.209 154.029 111.209C151.295 111.209 149.546 113.187 149.546 116.21V116.219C149.546 119.277 151.278 121.193 154.134 121.193ZM154.055 112.923C155.277 112.923 156.164 113.705 156.314 115.278H151.752C151.919 113.749 152.833 112.923 154.055 112.923ZM160.238 121H162.426V115.401C162.426 113.96 163.235 113.046 164.536 113.046C165.863 113.046 166.469 113.802 166.469 115.296V121H168.658V114.786C168.658 112.501 167.489 111.209 165.344 111.209C163.956 111.209 163.033 111.833 162.576 112.861H162.426V111.394H160.238V121ZM171.07 121H173.118V111.982H173.268L176.783 121H178.33L181.846 111.982H182.004V121H184.043V108.317H181.441L177.636 118.073H177.486L173.672 108.317H171.07V121ZM189.162 121.158C190.428 121.158 191.448 120.613 191.975 119.682H192.124V121H194.287V114.435C194.287 112.404 192.898 111.209 190.428 111.209C188.143 111.209 186.596 112.281 186.385 113.898L186.376 113.978H188.442L188.451 113.942C188.67 113.31 189.321 112.949 190.323 112.949C191.5 112.949 192.124 113.477 192.124 114.435V115.261L189.655 115.41C187.317 115.551 186.007 116.553 186.007 118.267V118.284C186.007 120.033 187.334 121.158 189.162 121.158ZM188.169 118.179V118.161C188.169 117.37 188.741 116.922 189.962 116.843L192.124 116.702V117.476C192.124 118.618 191.149 119.479 189.83 119.479C188.864 119.479 188.169 118.996 188.169 118.179ZM196.602 121H198.791V107.676H196.602V121ZM201.247 121H203.436V107.676H201.247V121Z" fill="#333333"/>
<rect x="79" y="99" width="30" height="30" rx="15" stroke="#5F7DE3" stroke-width="1.875"/>
<path d="M87 119V111.713C87 110.767 87.7835 110 88.75 110C89.2141 110 89.6592 110.181 89.9874 110.502L94 114.431L98.0126 110.502C98.696 109.833 99.804 109.833 100.487 110.502C100.816 110.823 101 111.259 101 111.713V119" stroke="#E74338" stroke-width="2.33333"/>
<path fill-rule="evenodd" clip-rule="evenodd" d="M336 114C336 105.163 343.163 98 352 98H408C416.837 98 424 105.163 424 114C424 122.837 416.837 130 408 130H352C343.163 130 336 122.837 336 114Z" fill="white" fill-opacity="0.4"/>
<path d="M336.5 114C336.5 105.44 343.44 98.5 352 98.5H408C416.56 98.5 423.5 105.44 423.5 114C423.5 122.56 416.56 129.5 408 129.5H352C343.44 129.5 336.5 122.56 336.5 114Z" stroke="black" stroke-opacity="0.1"/>
<path fill-rule="evenodd" clip-rule="evenodd" d="M353 116C354.105 116 355 115.105 355 114C355 112.895 354.105 112 353 112C351.895 112 351 112.895 351 114C351 115.105 351.895 116 353 116ZM359 116C360.105 116 361 115.105 361 114C361 112.895 360.105 112 359 112C357.895 112 357 112.895 357 114C357 115.105 357.895 116 359 116ZM367 114C367 115.105 366.105 116 365 116C363.895 116 363 115.105 363 114C363 112.895 363.895 112 365 112C366.105 112 367 112.895 367 114Z" fill="#2F3032"/>
<rect opacity="0.01" x="393.75" y="105.75" width="16.5" height="16.5" fill="#D8D8D8" stroke="#979797" stroke-width="1.5"/>
<path fill-rule="evenodd" clip-rule="evenodd" d="M396.293 108.293C396.683 107.902 397.317 107.902 397.707 108.293L401.95 112.536L406.192 108.293C406.583 107.902 407.216 107.902 407.607 108.293C407.997 108.683 407.997 109.317 407.607 109.707L403.364 113.95L407.607 118.192C407.997 118.583 407.997 119.216 407.607 119.607C407.216 119.997 406.583 119.997 406.192 119.607L401.95 115.364L397.707 119.607C397.317 119.997 396.683 119.997 396.293 119.607C395.902 119.216 395.902 118.583 396.293 118.192L400.536 113.95L396.293 109.707C395.902 109.317 395.902 108.683 396.293 108.293Z" fill="#2F3032"/>
<rect x="380" y="104" width="1" height="20" rx="0.5" fill="black" fill-opacity="0.1"/>
<rect opacity="0.35" x="395.5" y="67.8335" width="21" height="10.3333" rx="2.16667" stroke="black"/>
<path opacity="0.4" d="M418 71V75C418.805 74.6612 419.328 73.8731 419.328 73C419.328 72.1269 418.805 71.3388 418 71Z" fill="black"/>
<rect x="397" y="69.3335" width="18" height="7.33333" rx="1.33333" fill="black"/>
<path fill-rule="evenodd" clip-rule="evenodd" d="M382.33 69.6079C384.546 69.608 386.678 70.4594 388.283 71.9862C388.404 72.1041 388.598 72.1026 388.717 71.9829L389.873 70.8162C389.933 70.7555 389.967 70.6733 389.966 70.5877C389.966 70.5021 389.931 70.4202 389.87 70.3602C385.655 66.3207 379.005 66.3207 374.79 70.3602C374.729 70.4202 374.694 70.502 374.694 70.5876C374.693 70.6732 374.727 70.7555 374.787 70.8162L375.943 71.9829C376.062 72.1028 376.256 72.1043 376.377 71.9862C377.983 70.4593 380.114 69.6079 382.33 69.6079ZM382.33 73.4036C383.548 73.4035 384.722 73.856 385.624 74.6732C385.747 74.7892 385.939 74.7867 386.058 74.6676L387.212 73.5009C387.273 73.4397 387.307 73.3567 387.306 73.2704C387.305 73.1842 387.27 73.1018 387.208 73.0419C384.46 70.4855 380.204 70.4855 377.455 73.0419C377.393 73.1018 377.358 73.1842 377.357 73.2705C377.356 73.3568 377.39 73.4398 377.451 73.5009L378.605 74.6676C378.724 74.7867 378.917 74.7892 379.039 74.6732C379.941 73.8566 381.114 73.4041 382.33 73.4036ZM384.643 75.9574C384.645 76.0439 384.611 76.1273 384.549 76.1879L382.552 78.2036C382.494 78.2628 382.414 78.2961 382.33 78.2961C382.247 78.2961 382.167 78.2628 382.109 78.2036L380.111 76.1879C380.049 76.1272 380.015 76.0438 380.017 75.9573C380.019 75.8708 380.057 75.7889 380.121 75.7309C381.396 74.652 383.265 74.652 384.54 75.7309C384.604 75.7889 384.642 75.8709 384.643 75.9574Z" fill="black"/>
<path fill-rule="evenodd" clip-rule="evenodd" d="M368.667 67.6665H367.667C367.114 67.6665 366.667 68.1142 366.667 68.6665V77.3332C366.667 77.8855 367.114 78.3332 367.667 78.3332H368.667C369.219 78.3332 369.667 77.8855 369.667 77.3332V68.6665C369.667 68.1142 369.219 67.6665 368.667 67.6665ZM363 69.9998H364C364.552 69.9998 365 70.4476 365 70.9998V77.3332C365 77.8855 364.552 78.3332 364 78.3332H363C362.448 78.3332 362 77.8855 362 77.3332V70.9998C362 70.4476 362.448 69.9998 363 69.9998ZM359.333 72.3332H358.333C357.781 72.3332 357.333 72.7809 357.333 73.3332V77.3332C357.333 77.8855 357.781 78.3332 358.333 78.3332H359.333C359.885 78.3332 360.333 77.8855 360.333 77.3332V73.3332C360.333 72.7809 359.885 72.3332 359.333 72.3332ZM354.667 74.3332H353.667C353.114 74.3332 352.667 74.7809 352.667 75.3332V77.3332C352.667 77.8855 353.114 78.3332 353.667 78.3332H354.667C355.219 78.3332 355.667 77.8855 355.667 77.3332V75.3332C355.667 74.7809 355.219 74.3332 354.667 74.3332Z" fill="black"/>
<path d="M96.8516 68.8896C94.712 68.8896 93.1876 70.3525 93.1876 72.3555V72.3691C93.1876 74.2422 94.5138 75.623 96.4073 75.623C97.7608 75.623 98.6221 74.9326 98.9845 74.1533H99.1212C99.1212 74.2285 99.1143 74.3037 99.1143 74.3789C99.0391 76.2656 98.3761 77.7969 96.8106 77.7969C95.9425 77.7969 95.3341 77.3457 95.0743 76.6553L95.0538 76.5869H93.3175L93.3311 76.6621C93.6456 78.1729 94.9991 79.2461 96.8106 79.2461C99.2921 79.2461 100.789 77.2773 100.789 73.9551V73.9414C100.789 70.3867 98.9571 68.8896 96.8516 68.8896ZM96.8448 74.2695C95.7237 74.2695 94.9102 73.4492 94.9102 72.3076V72.2939C94.9102 71.1934 95.7784 70.3252 96.8653 70.3252C97.9591 70.3252 98.8136 71.207 98.8136 72.335V72.3486C98.8136 73.4629 97.9591 74.2695 96.8448 74.2695ZM103.613 72.6084C104.242 72.6084 104.7 72.1299 104.7 71.5283C104.7 70.9199 104.242 70.4482 103.613 70.4482C102.991 70.4482 102.526 70.9199 102.526 71.5283C102.526 72.1299 102.991 72.6084 103.613 72.6084ZM103.613 77.6807C104.242 77.6807 104.7 77.209 104.7 76.6006C104.7 75.9922 104.242 75.5205 103.613 75.5205C102.991 75.5205 102.526 75.9922 102.526 76.6006C102.526 77.209 102.991 77.6807 103.613 77.6807ZM111.221 79H112.91V77.1064H114.236V75.6504H112.91V69.1357H110.415C109.075 71.1729 107.673 73.4424 106.395 75.6641V77.1064H111.221V79ZM108.036 75.6914V75.5889C108.993 73.9141 110.134 72.0889 111.146 70.5439H111.249V75.6914H108.036ZM118.208 79H119.972V69.1357H118.215L115.638 70.9473V72.6084L118.092 70.8721H118.208V79Z" fill="black"/>
<rect x="59" y="220" width="375" height="88" fill="#272A34"/>
<path d="M123.72 291H125.987V280.225H129.898V278.317H119.817V280.225H123.72V291ZM134.086 291.193C136.96 291.193 138.709 289.312 138.709 286.201V286.184C138.709 283.09 136.952 281.209 134.086 281.209C131.23 281.209 129.463 283.099 129.463 286.184V286.201C129.463 289.312 131.204 291.193 134.086 291.193ZM134.086 289.418C132.566 289.418 131.696 288.231 131.696 286.21V286.192C131.696 284.171 132.566 282.976 134.086 282.976C135.598 282.976 136.468 284.171 136.468 286.192V286.21C136.468 288.231 135.607 289.418 134.086 289.418ZM140.595 291H142.783V287.625L143.548 286.843L146.633 291H149.269L145.138 285.454L149.006 281.394H146.474L142.932 285.331H142.783V277.676H140.595V291ZM154.134 291.193C156.744 291.193 158.028 289.69 158.335 288.451L158.362 288.372H156.279L156.252 288.434C156.041 288.873 155.364 289.471 154.178 289.471C152.693 289.471 151.761 288.469 151.735 286.746H158.449V286.025C158.449 283.125 156.762 281.209 154.029 281.209C151.295 281.209 149.546 283.187 149.546 286.21V286.219C149.546 289.277 151.278 291.193 154.134 291.193ZM154.055 282.923C155.277 282.923 156.164 283.705 156.314 285.278H151.752C151.919 283.749 152.833 282.923 154.055 282.923ZM160.238 291H162.426V285.401C162.426 283.96 163.235 283.046 164.536 283.046C165.863 283.046 166.469 283.802 166.469 285.296V291H168.658V284.786C168.658 282.501 167.489 281.209 165.344 281.209C163.956 281.209 163.033 281.833 162.576 282.861H162.426V281.394H160.238V291ZM171.07 291H173.118V281.982H173.268L176.783 291H178.33L181.846 281.982H182.004V291H184.043V278.317H181.441L177.636 288.073H177.486L173.672 278.317H171.07V291ZM189.162 291.158C190.428 291.158 191.448 290.613 191.975 289.682H192.124V291H194.287V284.435C194.287 282.404 192.898 281.209 190.428 281.209C188.143 281.209 186.596 282.281 186.385 283.898L186.376 283.978H188.442L188.451 283.942C188.67 283.31 189.321 282.949 190.323 282.949C191.5 282.949 192.124 283.477 192.124 284.435V285.261L189.655 285.41C187.317 285.551 186.007 286.553 186.007 288.267V288.284C186.007 290.033 187.334 291.158 189.162 291.158ZM188.169 288.179V288.161C188.169 287.37 188.741 286.922 189.962 286.843L192.124 286.702V287.476C192.124 288.618 191.149 289.479 189.83 289.479C188.864 289.479 188.169 288.996 188.169 288.179ZM196.602 291H198.791V277.676H196.602V291ZM201.247 291H203.436V277.676H201.247V291Z" fill="white"/>
<rect x="79" y="269" width="30" height="30" rx="15" fill="white" stroke="#5F7DE3" stroke-width="1.875"/>
<path d="M87 289V281.713C87 280.767 87.7835 280 88.75 280C89.2141 280 89.6592 280.181 89.9874 280.502L94 284.431L98.0126 280.502C98.696 279.833 99.804 279.833 100.487 280.502C100.816 280.823 101 281.259 101 281.713V289" stroke="#E74338" stroke-width="2.33333"/>
<g filter="url(#filter0_b)">
<path fill-rule="evenodd" clip-rule="evenodd" d="M336 284C336 275.163 343.163 268 352 268H408C416.837 268 424 275.163 424 284C424 292.837 416.837 300 408 300H352C343.163 300 336 292.837 336 284Z" fill="black" fill-opacity="0.16"/>
<path d="M336.5 284C336.5 275.44 343.44 268.5 352 268.5H408C416.56 268.5 423.5 275.44 423.5 284C423.5 292.56 416.56 299.5 408 299.5H352C343.44 299.5 336.5 292.56 336.5 284Z" stroke="white" stroke-opacity="0.12"/>
</g>
<path fill-rule="evenodd" clip-rule="evenodd" d="M353 286C354.105 286 355 285.105 355 284C355 282.895 354.105 282 353 282C351.895 282 351 282.895 351 284C351 285.105 351.895 286 353 286ZM359 286C360.105 286 361 285.105 361 284C361 282.895 360.105 282 359 282C357.895 282 357 282.895 357 284C357 285.105 357.895 286 359 286ZM367 284C367 285.105 366.105 286 365 286C363.895 286 363 285.105 363 284C363 282.895 363.895 282 365 282C366.105 282 367 282.895 367 284Z" fill="white"/>
<rect opacity="0.01" x="393.75" y="275.75" width="16.5" height="16.5" fill="#D8D8D8" stroke="#979797" stroke-width="1.5"/>
<path fill-rule="evenodd" clip-rule="evenodd" d="M396.293 278.293C396.683 277.902 397.317 277.902 397.707 278.293L401.95 282.536L406.192 278.293C406.583 277.902 407.216 277.902 407.607 278.293C407.997 278.683 407.997 279.317 407.607 279.707L403.364 283.95L407.607 288.192C407.997 288.583 407.997 289.216 407.607 289.607C407.216 289.997 406.583 289.997 406.192 289.607L401.95 285.364L397.707 289.607C397.317 289.997 396.683 289.997 396.293 289.607C395.902 289.216 395.902 288.583 396.293 288.192L400.536 283.95L396.293 279.707C395.902 279.317 395.902 278.683 396.293 278.293Z" fill="white"/>
<rect opacity="0.1" x="380" y="274" width="1" height="20" rx="0.5" fill="white"/>
<rect opacity="0.35" x="395.5" y="237.833" width="21" height="10.3333" rx="2.16667" stroke="black"/>
<path opacity="0.4" d="M418 241V245C418.805 244.661 419.328 243.873 419.328 243C419.328 242.127 418.805 241.339 418 241Z" fill="black"/>
<rect x="397" y="239.333" width="18" height="7.33333" rx="1.33333" fill="black"/>
<path fill-rule="evenodd" clip-rule="evenodd" d="M382.33 239.608C384.546 239.608 386.678 240.459 388.283 241.986C388.404 242.104 388.598 242.103 388.717 241.983L389.873 240.816C389.933 240.756 389.967 240.673 389.966 240.588C389.966 240.502 389.931 240.42 389.87 240.36C385.655 236.321 379.005 236.321 374.79 240.36C374.729 240.42 374.694 240.502 374.694 240.588C374.693 240.673 374.727 240.755 374.787 240.816L375.943 241.983C376.062 242.103 376.256 242.104 376.377 241.986C377.983 240.459 380.114 239.608 382.33 239.608ZM382.33 243.404C383.548 243.403 384.722 243.856 385.624 244.673C385.747 244.789 385.939 244.787 386.058 244.668L387.212 243.501C387.273 243.44 387.307 243.357 387.306 243.27C387.305 243.184 387.27 243.102 387.208 243.042C384.46 240.486 380.204 240.486 377.455 243.042C377.393 243.102 377.358 243.184 377.357 243.27C377.356 243.357 377.39 243.44 377.451 243.501L378.605 244.668C378.724 244.787 378.917 244.789 379.039 244.673C379.941 243.857 381.114 243.404 382.33 243.404ZM384.643 245.957C384.645 246.044 384.611 246.127 384.549 246.188L382.552 248.204C382.494 248.263 382.414 248.296 382.33 248.296C382.247 248.296 382.167 248.263 382.109 248.204L380.111 246.188C380.049 246.127 380.015 246.044 380.017 245.957C380.019 245.871 380.057 245.789 380.121 245.731C381.396 244.652 383.265 244.652 384.54 245.731C384.604 245.789 384.642 245.871 384.643 245.957Z" fill="black"/>
<path fill-rule="evenodd" clip-rule="evenodd" d="M368.667 237.667H367.667C367.114 237.667 366.667 238.114 366.667 238.667V247.333C366.667 247.885 367.114 248.333 367.667 248.333H368.667C369.219 248.333 369.667 247.885 369.667 247.333V238.667C369.667 238.114 369.219 237.667 368.667 237.667ZM363 240H364C364.552 240 365 240.448 365 241V247.333C365 247.885 364.552 248.333 364 248.333H363C362.448 248.333 362 247.885 362 247.333V241C362 240.448 362.448 240 363 240ZM359.333 242.333H358.333C357.781 242.333 357.333 242.781 357.333 243.333V247.333C357.333 247.885 357.781 248.333 358.333 248.333H359.333C359.885 248.333 360.333 247.885 360.333 247.333V243.333C360.333 242.781 359.885 242.333 359.333 242.333ZM354.667 244.333H353.667C353.114 244.333 352.667 244.781 352.667 245.333V247.333C352.667 247.885 353.114 248.333 353.667 248.333H354.667C355.219 248.333 355.667 247.885 355.667 247.333V245.333C355.667 244.781 355.219 244.333 354.667 244.333Z" fill="black"/>
<path d="M96.8516 238.89C94.712 238.89 93.1876 240.353 93.1876 242.355V242.369C93.1876 244.242 94.5138 245.623 96.4073 245.623C97.7608 245.623 98.6221 244.933 98.9845 244.153H99.1212C99.1212 244.229 99.1143 244.304 99.1143 244.379C99.0391 246.266 98.3761 247.797 96.8106 247.797C95.9425 247.797 95.3341 247.346 95.0743 246.655L95.0538 246.587H93.3175L93.3311 246.662C93.6456 248.173 94.9991 249.246 96.8106 249.246C99.2921 249.246 100.789 247.277 100.789 243.955V243.941C100.789 240.387 98.9571 238.89 96.8516 238.89ZM96.8448 244.27C95.7237 244.27 94.9102 243.449 94.9102 242.308V242.294C94.9102 241.193 95.7784 240.325 96.8653 240.325C97.9591 240.325 98.8136 241.207 98.8136 242.335V242.349C98.8136 243.463 97.9591 244.27 96.8448 244.27ZM103.613 242.608C104.242 242.608 104.7 242.13 104.7 241.528C104.7 240.92 104.242 240.448 103.613 240.448C102.991 240.448 102.526 240.92 102.526 241.528C102.526 242.13 102.991 242.608 103.613 242.608ZM103.613 247.681C104.242 247.681 104.7 247.209 104.7 246.601C104.7 245.992 104.242 245.521 103.613 245.521C102.991 245.521 102.526 245.992 102.526 246.601C102.526 247.209 102.991 247.681 103.613 247.681ZM111.221 249H112.91V247.106H114.236V245.65H112.91V239.136H110.415C109.075 241.173 107.673 243.442 106.395 245.664V247.106H111.221V249ZM108.036 245.691V245.589C108.993 243.914 110.134 242.089 111.146 240.544H111.249V245.691H108.036ZM118.208 249H119.972V239.136H118.215L115.638 240.947V242.608L118.092 240.872H118.208V249Z" fill="black"/>
<rect opacity="0.35" x="395.5" y="237.833" width="21" height="10.3333" rx="2.16667" stroke="white"/>
<path opacity="0.4" d="M418 241V245C418.805 244.661 419.328 243.873 419.328 243C419.328 242.127 418.805 241.339 418 241Z" fill="white"/>
<rect x="397" y="239.333" width="18" height="7.33333" rx="1.33333" fill="white"/>
<path fill-rule="evenodd" clip-rule="evenodd" d="M382.33 239.608C384.546 239.608 386.678 240.459 388.283 241.986C388.404 242.104 388.598 242.103 388.717 241.983L389.873 240.816C389.933 240.756 389.967 240.673 389.966 240.588C389.966 240.502 389.931 240.42 389.87 240.36C385.655 236.321 379.005 236.321 374.79 240.36C374.729 240.42 374.694 240.502 374.694 240.588C374.693 240.673 374.727 240.755 374.787 240.816L375.943 241.983C376.062 242.103 376.256 242.104 376.377 241.986C377.983 240.459 380.114 239.608 382.33 239.608ZM382.33 243.404C383.548 243.403 384.722 243.856 385.624 244.673C385.747 244.789 385.939 244.787 386.058 244.668L387.212 243.501C387.273 243.44 387.307 243.357 387.306 243.27C387.305 243.184 387.27 243.102 387.208 243.042C384.46 240.486 380.204 240.486 377.455 243.042C377.393 243.102 377.358 243.184 377.357 243.27C377.356 243.357 377.39 243.44 377.451 243.501L378.605 244.668C378.724 244.787 378.917 244.789 379.039 244.673C379.941 243.857 381.114 243.404 382.33 243.404ZM384.643 245.957C384.645 246.044 384.611 246.127 384.549 246.188L382.552 248.204C382.494 248.263 382.414 248.296 382.33 248.296C382.247 248.296 382.167 248.263 382.109 248.204L380.111 246.188C380.049 246.127 380.015 246.044 380.017 245.957C380.019 245.871 380.057 245.789 380.121 245.731C381.396 244.652 383.265 244.652 384.54 245.731C384.604 245.789 384.642 245.871 384.643 245.957Z" fill="white"/>
<path fill-rule="evenodd" clip-rule="evenodd" d="M368.667 237.667H367.667C367.114 237.667 366.667 238.114 366.667 238.667V247.333C366.667 247.885 367.114 248.333 367.667 248.333H368.667C369.219 248.333 369.667 247.885 369.667 247.333V238.667C369.667 238.114 369.219 237.667 368.667 237.667ZM363 240H364C364.552 240 365 240.448 365 241V247.333C365 247.885 364.552 248.333 364 248.333H363C362.448 248.333 362 247.885 362 247.333V241C362 240.448 362.448 240 363 240ZM359.333 242.333H358.333C357.781 242.333 357.333 242.781 357.333 243.333V247.333C357.333 247.885 357.781 248.333 358.333 248.333H359.333C359.885 248.333 360.333 247.885 360.333 247.333V243.333C360.333 242.781 359.885 242.333 359.333 242.333ZM354.667 244.333H353.667C353.114 244.333 352.667 244.781 352.667 245.333V247.333C352.667 247.885 353.114 248.333 353.667 248.333H354.667C355.219 248.333 355.667 247.885 355.667 247.333V245.333C355.667 244.781 355.219 244.333 354.667 244.333Z" fill="white"/>
<g clip-path="url(#clip0)">
<path d="M96.7764 248.739C99.2852 248.739 100.775 246.777 100.775 243.455C100.775 240.194 99.1895 238.39 96.8311 238.39C94.6846 238.39 93.1671 239.832 93.1671 241.855C93.1671 243.749 94.5343 245.13 96.4141 245.13C97.5694 245.13 98.5059 244.597 98.9708 243.66H99.087C99.0665 245.943 98.2393 247.263 96.797 247.263C95.9493 247.263 95.2725 246.805 95.0606 246.066H93.3038C93.5909 247.68 94.9718 248.739 96.7764 248.739ZM96.838 243.735C95.6895 243.735 94.8966 242.942 94.8966 241.801C94.8966 240.7 95.7305 239.859 96.8448 239.859C97.9591 239.859 98.793 240.714 98.793 241.835C98.793 242.936 97.9796 243.735 96.838 243.735ZM103.592 247.14C104.242 247.14 104.686 246.675 104.686 246.06C104.686 245.438 104.242 244.979 103.592 244.979C102.95 244.979 102.498 245.438 102.498 246.06C102.498 246.675 102.95 247.14 103.592 247.14ZM103.592 242.149C104.242 242.149 104.686 241.691 104.686 241.076C104.686 240.454 104.242 239.996 103.592 239.996C102.95 239.996 102.498 240.454 102.498 241.076C102.498 241.691 102.95 242.149 103.592 242.149ZM111.221 248.5H112.91V246.62H114.243V245.13H112.91V238.636H110.422C109.082 240.673 107.68 242.922 106.402 245.15V246.62H111.221V248.5ZM108.036 245.075C109 243.414 110.141 241.603 111.153 240.071H111.249V245.171H108.036V245.075ZM118.167 248.5H119.931V238.636H118.174L115.597 240.44V242.136L118.051 240.413H118.167V248.5Z" fill="white"/>
</g>
<defs>
<filter id="filter0_b" x="281.634" y="213.634" width="196.731" height="140.731" filterUnits="userSpaceOnUse" color-interpolation-filters="sRGB">
<feFlood flood-opacity="0" result="BackgroundImageFix"/>
<feGaussianBlur in="BackgroundImage" stdDeviation="27.1828"/>
<feComposite in2="SourceAlpha" operator="in" result="effect1_backgroundBlur"/>
<feBlend mode="normal" in="SourceGraphic" in2="effect1_backgroundBlur" result="shape"/>
</filter>
<clipPath id="clip0">
<rect width="54" height="17" fill="white" transform="translate(80 235)"/>
</clipPath>
</defs>
</svg>
