<?xml version="1.0" encoding="UTF-8"?>
<svg width="18px" height="18px" viewBox="0 0 18 18" version="1.1" xmlns="http://www.w3.org/2000/svg" xmlns:xlink="http://www.w3.org/1999/xlink">
    <!-- Generator: Sketch 61 (89581) - https://sketch.com -->
    <title>编组 4</title>
    <desc>Created with Sketch.</desc>
    <g id="移动端" stroke="none" stroke-width="1" fill="none" fill-rule="evenodd">
        <g id="my-app_Secret" transform="translate(-40.000000, -399.000000)">
            <g id="App-Session" transform="translate(20.000000, 375.000000)">
                <g id="编组-2" transform="translate(20.000000, 24.000000)">
                    <g id="编组-4">
                        <path d="M4.29411765,9.41176471 L8.58823529,9.41176471 L8.58784641,13.733768 L8.58145965,13.948663 C8.45457216,16.2169169 6.57510212,18 4.29411765,18 C1.92254196,18 0,16.077458 0,13.7058824 C0,11.4940186 1.6766548,9.65970382 3.87200609,9.43379726 L4.07930456,9.41736822 L4.29411765,9.41176471 Z M13.7058824,9.41176471 C16.077458,9.41176471 18,11.3343067 18,13.7058824 C18,16.077458 16.077458,18 13.7058824,18 C11.4940186,18 9.65970382,16.3233452 9.43379726,14.1279939 L9.41736822,13.9206954 L9.41176471,13.7058824 L9.41176471,9.41176471 L13.7058824,9.41176471 Z M6.588,11.411 L4.32200334,11.4113758 L4.16304353,11.4154183 C2.95287789,11.4831157 2,12.4875027 2,13.7058824 C2,14.9728885 3.02711146,16 4.29411765,16 C5.45952427,16 6.42914176,15.1281798 6.56947315,14.0177638 L6.58340955,13.8649241 L6.58823529,13.7058824 L6.588,11.411 Z M13.7058824,11.4117647 L11.411,11.411 L11.4113758,13.6779967 L11.4154183,13.8369565 C11.4831157,15.0471221 12.4875027,16 13.7058824,16 C14.9728885,16 16,14.9728885 16,13.7058824 C16,12.4916681 15.056698,11.4977738 13.8629517,11.4170573 L13.7058824,11.4117647 Z M4.29411765,0 C6.50598137,0 8.34029618,1.6766548 8.56620274,3.87200609 L8.58263178,4.07930456 L8.58823529,4.29411765 L8.58823529,8.58823529 L4.29411765,8.58823529 C1.92254196,8.58823529 0,6.66569334 0,4.29411765 C0,1.92254196 1.92254196,0 4.29411765,0 Z M13.7058824,0 C16.077458,0 18,1.92254196 18,4.29411765 C18,6.50598137 16.3233452,8.34029618 14.1279939,8.56620274 L13.9206954,8.58263178 L13.7058824,8.58823529 L9.41176471,8.58823529 L9.41215359,4.26623195 L9.41854035,4.05133697 C9.54542784,1.78308309 11.4248979,0 13.7058824,0 Z M4.29411765,2 L4.13704827,2.00529259 C2.94330201,2.08600911 2,3.07990338 2,4.29411765 C2,5.50833191 2.94330201,6.50222619 4.13704827,6.5829427 L4.29411765,6.58823529 L6.588,6.588 L6.58862418,4.32200334 L6.58458168,4.16304353 C6.51982764,3.00549379 5.59806461,2.08334531 4.45176376,2.00534667 L4.29411765,2 Z M13.7058824,2 C12.5404757,2 11.5708582,2.87182022 11.4305269,3.98223616 L11.4165905,4.13507594 L11.4117647,4.29411765 L11.411,6.588 L13.6779967,6.58862418 L13.8369565,6.58458168 C15.0471221,6.51688428 16,5.51249729 16,4.29411765 C16,3.02711146 14.9728885,2 13.7058824,2 Z" id="形状结合备份-4" fill="#B8BDC7" fill-rule="nonzero"></path>
                        <rect id="矩形" x="0" y="0" width="18" height="18"></rect>
                    </g>
                </g>
            </g>
        </g>
    </g>
</svg>