<svg width="22" height="16" viewBox="0 0 22 16" fill="none" xmlns="http://www.w3.org/2000/svg"><script xmlns=""/>
<path fill-rule="evenodd" clip-rule="evenodd" d="M17.9942 1.60933L21.56 0.0436516C21.7211 -0.0264196 21.9069 0.0511906 21.975 0.216999C21.9915 0.257146 22 0.300289 22 0.343874V15.6741C22 15.8541 21.8582 16 21.6833 16C21.6353 16 21.5879 15.9888 21.5448 15.9672L17.9699 14.1449C17.7791 14.0494 17.658 13.8502 17.658 13.6319V2.28693C17.658 2.05771 17.789 1.69856 17.9942 1.60933ZM4.34214 2.28603V13.5377C4.34214 13.8603 4.19536 14.1098 3.95596 14.2255L0.454488 15.9672C0.411404 15.9888 0.364124 16 0.316218 16C0.141575 16 0 15.8243 0 15.6054V0.417947C0 0.0844802 0.224461 -0.0522122 0.385328 0.017859C0.546195 0.0879302 3.95596 1.63188 3.95596 1.63188C4.20848 1.742 4.34214 1.94522 4.34214 2.28603ZM11.2479 3.46711L14.7356 5.54919C14.9063 5.6513 15.0527 5.83535 15.0527 6.06542V10.2548C15.0527 10.4579 14.9531 10.6458 14.7824 10.7479L11.2985 12.8507C11.1263 12.9537 10.9136 12.9537 10.7413 12.8507L7.22312 10.7479C7.05244 10.6458 6.94742 10.4579 6.94742 10.2548V6.0664C6.94742 5.86324 7.0554 5.6513 7.22609 5.54919L10.7279 3.46711C10.9001 3.36407 11.0757 3.36407 11.2479 3.46711Z" fill="url(#paint0_linear)"/>
<defs>
<linearGradient id="paint0_linear" x1="11" y1="0" x2="11" y2="16" gradientUnits="userSpaceOnUse">
<stop stop-color="#19C0FC"/>
<stop offset="1" stop-color="#386BE8"/>
</linearGradient>
</defs>
</svg>