<svg width="48" height="34" viewBox="0 0 48 34" fill="none" xmlns="http://www.w3.org/2000/svg">
<path d="M0 2.90858V31.0914C0 32.494 1.4062 33.461 2.71587 32.9589L9.15066 30.4923C9.92413 30.1958 10.4348 29.4531 10.4348 28.6248V5.37524C10.4348 4.54688 9.92413 3.80425 9.15065 3.50775L2.71587 1.04108C1.40619 0.53904 0 1.50597 0 2.90858Z" fill="#2F3032"/>
<path d="M14.6087 13.201V21.799C14.6087 22.5382 15.0164 23.217 15.6688 23.5644L23.0601 27.4996C23.6477 27.8124 24.3523 27.8124 24.9399 27.4996L32.3312 23.5644C32.9836 23.217 33.3913 22.5382 33.3913 21.799V13.201C33.3913 12.4618 32.9836 11.783 32.3312 11.4356L24.9399 7.50041C24.3523 7.18759 23.6477 7.18759 23.0601 7.50041L15.6688 11.4356C15.0164 11.783 14.6087 12.4618 14.6087 13.201Z" fill="#2F3032"/>
<path d="M48 2.90858V31.0914C48 32.494 46.5938 33.461 45.2841 32.9589L38.8493 30.4923C38.0759 30.1958 37.5652 29.4531 37.5652 28.6248V5.37524C37.5652 4.54688 38.0759 3.80425 38.8493 3.50775L45.2841 1.04108C46.5938 0.539041 48 1.50597 48 2.90858Z" fill="#2F3032"/>
</svg>
