<svg width="24" height="24" viewBox="0 0 24 24" fill="none" xmlns="http://www.w3.org/2000/svg">
<path fill-rule="evenodd" clip-rule="evenodd" d="M15.7458 10.1907C15.6343 9.02866 14.6307 8.63916 13.3643 8.52802L13.3643 6.9159L12.3835 6.91635L12.3832 8.48598C12.1254 8.48555 11.8622 8.491 11.5996 8.49631L11.6002 6.91639L10.6192 6.9163L10.6191 8.52788C10.4067 8.53202 10.1978 8.53643 9.99449 8.53604L9.99436 8.53096L8.641 8.53064L8.64114 9.57849C8.64114 9.57849 9.36599 9.56465 9.35396 9.57787C9.75137 9.57812 9.88041 9.80877 9.91822 10.0082L9.91853 11.8445C9.94578 11.8445 9.98131 11.8459 10.0223 11.851L9.91852 11.8513L9.9185 14.4239C9.90079 14.5487 9.82732 14.7481 9.54933 14.7487C9.56228 14.7597 8.83638 14.7488 8.83638 14.7488L8.6414 15.9202L9.91862 15.9202C10.156 15.9206 10.3898 15.9248 10.6189 15.9261L10.6194 17.5563L11.5997 17.556L11.5997 15.9439C11.8688 15.9488 12.1293 15.9509 12.3837 15.951L12.3832 17.5565L13.364 17.556L13.3642 15.9291C15.014 15.8345 16.1684 15.419 16.3117 13.8698C16.4277 12.6228 15.8409 12.0657 14.9045 11.8411C15.4738 11.5516 15.829 11.0413 15.7458 10.1907ZM14.3727 13.6767C14.374 14.8951 12.2873 14.7563 11.6222 14.757L11.6229 12.5969C12.2883 12.5973 14.3733 12.4061 14.3727 13.6767ZM13.9166 10.6291C13.9166 11.7378 12.1767 11.6079 11.6232 11.6079L11.6231 9.64957C12.1766 9.64952 13.9167 9.47282 13.9166 10.6291Z" fill="#2F3032"/>
<path fill-rule="evenodd" clip-rule="evenodd" d="M13.9364 1.4263C14.3595 1.07129 14.9902 1.12648 15.3452 1.54955L17.9164 4.61373L16.3843 5.89931L13.8132 2.83513C13.4582 2.41205 13.5133 1.7813 13.9364 1.4263ZM6.3044 19.5199L7.83649 18.2343L10.4076 21.2985C10.7626 21.7216 10.7075 22.3523 10.2844 22.7073C9.86131 23.0623 9.23055 23.0071 8.87555 22.5841L6.3044 19.5199Z" fill="#2F3032"/>
<path d="M17.0684 5.15475C15.6582 4.11466 13.9151 3.49994 12.0283 3.49994C7.3339 3.49994 3.52832 7.30552 3.52832 11.9999C3.52832 13.2808 3.81164 14.4955 4.31904 15.5848M7.10905 18.9326C8.49747 19.9196 10.1951 20.4999 12.0283 20.4999C16.7227 20.4999 20.5283 16.6944 20.5283 11.9999C20.5283 10.7048 20.2386 9.47724 19.7205 8.37863" stroke="#2F3032" stroke-width="2" stroke-linecap="round"/>
</svg>
