<svg width="24" height="24" viewBox="0 0 24 24" fill="none" xmlns="http://www.w3.org/2000/svg">
<path d="M2 8C2 6.89543 2.89543 6 4 6H20C21.1046 6 22 6.89543 22 8V19C22 20.1046 21.1046 21 20 21H4C2.89543 21 2 20.1046 2 19V8Z" stroke="#2F3032" stroke-width="2"/>
<path d="M16 7V5C16 3.89543 15.1046 3 14 3H10C8.89543 3 8 3.89543 8 5V7" stroke="#2F3032" stroke-width="2"/>
<rect x="1" y="10" width="22" height="2" fill="#2F3032"/>
<path d="M15 12C15 13.1046 13.6569 14 12 14C10.3431 14 9 13.1046 9 12C9 10.8954 9 11 9 11L15 11C15 11 15 11.5947 15 12Z" stroke="#2F3032" stroke-width="2"/>
</svg>
