<svg width="24" height="24" viewBox="0 0 24 24" fill="none" xmlns="http://www.w3.org/2000/svg">
<path d="M6.375 8C6.375 7.44772 6.82272 7 7.375 7H17.375C17.9273 7 18.375 7.44772 18.375 8C18.375 8.55228 17.9273 9 17.375 9H7.375C6.82272 9 6.375 8.55228 6.375 8Z" fill="#2F3032"/>
<path d="M13.375 12C13.375 11.4477 13.8227 11 14.375 11H17.375C17.9273 11 18.375 11.4477 18.375 12C18.375 12.5523 17.9273 13 17.375 13H14.375C13.8227 13 13.375 12.5523 13.375 12Z" fill="#2F3032"/>
<path d="M13.375 16C13.375 15.4477 13.8227 15 14.375 15H17.375C17.9273 15 18.375 15.4477 18.375 16C18.375 16.5523 17.9273 17 17.375 17H14.375C13.8227 17 13.375 16.5523 13.375 16Z" fill="#2F3032"/>
<rect x="3.375" y="3" width="18" height="18" rx="2" stroke="#2F3032" stroke-width="2"/>
<rect x="7.375" y="12" width="4" height="4" rx="0.5" stroke="#2F3032" stroke-width="1.8"/>
</svg>
