<svg width="24" height="24" viewBox="0 0 24 24" fill="none" xmlns="http://www.w3.org/2000/svg">
<path d="M18 9H17C17 9.34658 17.1795 9.66844 17.4743 9.85065C17.7691 10.0329 18.1372 10.0494 18.4472 9.89443L18 9ZM18 15L18.4472 14.1056C18.1372 13.9506 17.7691 13.9671 17.4743 14.1493C17.1795 14.3316 17 14.6534 17 15H18ZM21.2764 7.3618L20.8292 6.46738L21.2764 7.3618ZM3 6H16V4H3V6ZM16 18H3V20H16V18ZM2 17V7H0V17H2ZM17 7V9H19V7H17ZM17 15V17H19V15H17ZM18.4472 9.89443L21.7236 8.25623L20.8292 6.46738L17.5528 8.10557L18.4472 9.89443ZM21 7.80902V12H23V7.80902H21ZM21 12V16.191H23V12H21ZM21.7236 15.7438L18.4472 14.1056L17.5528 15.8944L20.8292 17.5326L21.7236 15.7438ZM21 16.191C21 15.8193 21.3912 15.5775 21.7236 15.7438L20.8292 17.5326C21.8265 18.0313 23 17.3061 23 16.191H21ZM3 18C2.44772 18 2 17.5523 2 17H0C0 18.6569 1.34315 20 3 20V18ZM21.7236 8.25623C21.3912 8.42246 21 8.18071 21 7.80902H23C23 6.69394 21.8265 5.9687 20.8292 6.46738L21.7236 8.25623ZM16 20C17.6569 20 19 18.6569 19 17H17C17 17.5523 16.5523 18 16 18V20ZM16 6C16.5523 6 17 6.44772 17 7H19C19 5.34315 17.6569 4 16 4V6ZM3 4C1.34315 4 0 5.34315 0 7H2C2 6.44772 2.44772 6 3 6V4Z" fill="#2F3032"/>
<path d="M8.32788 10.2C8.32788 9.70557 8.89234 9.42334 9.28788 9.72L11.6879 11.52C12.0079 11.76 12.0079 12.24 11.6879 12.48L9.28788 14.28C8.89234 14.5767 8.32788 14.2944 8.32788 13.8V10.2Z" fill="#2F3032" stroke="#2F3032"/>
</svg>
