<svg width="24" height="24" viewBox="0 0 24 24" fill="none" xmlns="http://www.w3.org/2000/svg">
<path fill-rule="evenodd" clip-rule="evenodd" d="M8.5 21C10.9853 21 13 19.433 13 17.5C13 15.567 10.9853 14 8.5 14C6.01472 14 4 15.567 4 17.5C4 19.433 6.01472 21 8.5 21Z" stroke="#2F3032" stroke-width="2"/>
<path fill-rule="evenodd" clip-rule="evenodd" d="M12 3C12 2.44772 12.4477 2 13 2C13.5523 2 14 2.44772 14 3V17.9204C14 17.9644 13.9644 18 13.9204 18H12V3Z" fill="#2F3032"/>
<path d="M13.0731 2.99257C13.7163 3.36939 14.1593 3.62784 14.4019 3.76794L20.4679 7.26141L19.9641 8.13397C19.1357 9.56884 17.3009 10.0605 15.866 9.23204L13.3158 7.75969" stroke="#2F3032" stroke-width="2" stroke-linecap="round" stroke-linejoin="round"/>
</svg>
