<svg width="24" height="24" viewBox="0 0 24 24" fill="none" xmlns="http://www.w3.org/2000/svg">
<path fill-rule="evenodd" clip-rule="evenodd" d="M13.9547 5H13.9995L10.0443 5.003C8.15826 5.003 6.58719 6.31175 6.16517 8.06842C3.96408 8.07942 2 9.84909 2 12.0517V14.0513C2 16.2549 3.99708 18.0296 6.19817 18.0396C6.65819 19.7412 8.19726 21 10.0443 21H14.0005L13.9547 20.997C15.8007 20.997 17.3408 19.7382 17.8008 18.0376C20.0029 18.0276 22 16.2529 22 14.0503V12.0507C22 9.84709 20.0359 8.07742 17.8348 8.06643C17.5098 6.71468 16.5038 5.62688 15.1967 5.19796C14.8057 5.06899 14.3887 5 13.9547 5Z" stroke="#2F3032" stroke-width="2"/>
<path d="M8 3L11 5" stroke="#2F3032" stroke-width="2" stroke-linecap="round"/>
<path d="M16 3L13 5" stroke="#2F3032" stroke-width="2" stroke-linecap="round"/>
<rect x="8" y="10" width="2" height="5" rx="1" fill="#2F3032"/>
<rect x="14" y="10" width="2" height="5" rx="1" fill="#2F3032"/>
</svg>
