<?xml version="1.0" encoding="UTF-8"?>
<svg width="16px" height="16px" viewBox="0 0 16 16" version="1.1" xmlns="http://www.w3.org/2000/svg" xmlns:xlink="http://www.w3.org/1999/xlink">
    <!-- Generator: Sketch 61 (89581) - https://sketch.com -->
    <title>编组 7</title>
    <desc>Created with Sketch.</desc>
    <g id="桌面端" stroke="none" stroke-width="1" fill="none" fill-rule="evenodd">
        <g id="修改机器人信息(1440*900）备份-15" transform="translate(-1024.000000, -224.000000)" fill="#B8BDC7" fill-rule="nonzero">
            <g id="编组-7" transform="translate(1024.000000, 224.000000)">
                <path d="M1.61289944,0.209704612 L1.70710678,0.292893219 L8,6.585 L14.2928932,0.292893219 L14.3871006,0.209704612 C14.7793918,-0.0953202783 15.3466228,-0.0675907428 15.7071068,0.292893219 C16.0976311,0.683417511 16.0976311,1.31658249 15.7071068,1.70710678 L15.7071068,1.70710678 L9.415,8 L15.7071068,14.2928932 C16.0976311,14.6834175 16.0976311,15.3165825 15.7071068,15.7071068 C15.3466228,16.0675907 14.7793918,16.0953203 14.3871006,15.7902954 L14.2928932,15.7071068 L8,9.415 L1.70710678,15.7071068 L1.61289944,15.7902954 C1.22060824,16.0953203 0.65337718,16.0675907 0.292893219,15.7071068 C-0.0976310729,15.3165825 -0.0976310729,14.6834175 0.292893219,14.2928932 L0.292893219,14.2928932 L6.585,8 L0.292893219,1.70710678 C-0.0976310729,1.31658249 -0.0976310729,0.683417511 0.292893219,0.292893219 C0.65337718,-0.0675907428 1.22060824,-0.0953202783 1.61289944,0.209704612 Z" id="形状结合"></path>
            </g>
        </g>
    </g>
</svg>