<svg width="18" height="18" viewBox="0 0 18 18" fill="none" xmlns="http://www.w3.org/2000/svg">
    <g id="icon/credit">
        <path id="Union"
            d="M9 0C11.0352 0 12.9252 0.352022 14.3438 0.959961C15.0511 1.26315 15.6881 1.64957 16.1621 2.12988C16.6403 2.61451 17 3.24775 17 4V14.5C17 15.2537 16.5692 15.8367 16.0947 16.2373C15.6157 16.6417 14.9819 16.9615 14.2861 17.21C12.8857 17.7101 11.0165 18 9 18C6.98346 18 5.11434 17.7101 3.71387 17.21C3.0181 16.9615 2.38435 16.6417 1.90527 16.2373C1.43081 15.8367 1 15.2537 1 14.5V4C1 3.24775 1.35969 2.61451 1.83789 2.12988C2.31192 1.64957 2.94886 1.26315 3.65625 0.959961C5.07477 0.352022 6.96482 0 9 0ZM15 11.916C14.7725 12.023 14.5335 12.1216 14.2861 12.21C12.8857 12.7101 11.0165 13 9 13C6.98346 13 5.11434 12.7101 3.71387 12.21C3.46649 12.1216 3.22754 12.023 3 11.916V14.4824C3.00647 14.5016 3.04116 14.5788 3.19531 14.709C3.42465 14.9026 3.81586 15.1223 4.38672 15.3262C5.51973 15.7308 7.15068 16 9 16C10.8493 16 12.4803 15.7308 13.6133 15.3262C14.1841 15.1223 14.5754 14.9026 14.8047 14.709C14.9588 14.5788 14.9935 14.5016 15 14.4824V11.916ZM15 6.71973C14.7902 6.83473 14.5711 6.94258 14.3438 7.04004C12.9252 7.64798 11.0352 8 9 8C6.96482 8 5.07477 7.64798 3.65625 7.04004C3.42887 6.94258 3.20975 6.83473 3 6.71973V9.48242C3.00647 9.50162 3.04116 9.57882 3.19531 9.70898C3.42465 9.90263 3.81586 10.1223 4.38672 10.3262C5.51973 10.7308 7.15068 11 9 11C10.8493 11 12.4803 10.7308 13.6133 10.3262C14.1841 10.1223 14.5754 9.90263 14.8047 9.70898C14.9588 9.57882 14.9935 9.50162 15 9.48242V6.71973ZM9 2C7.16926 2 5.55931 2.32003 4.44434 2.79785C3.88507 3.03754 3.49608 3.29769 3.26172 3.53516C3.03186 3.76816 3 3.92398 3 4C3 4.07602 3.03186 4.23184 3.26172 4.46484C3.49608 4.70231 3.88507 4.96246 4.44434 5.20215C5.55931 5.67997 7.16926 6 9 6C10.8307 6 12.4407 5.67997 13.5557 5.20215C14.1149 4.96246 14.5039 4.70231 14.7383 4.46484C14.9681 4.23184 15 4.07602 15 4C15 3.92398 14.9681 3.76816 14.7383 3.53516C14.5039 3.29769 14.1149 3.03754 13.5557 2.79785C12.4407 2.32003 10.8307 2 9 2Z"
            fill="#2F3032" />
    </g>
</svg>