<svg width="19" height="18" viewBox="0 0 19 18" fill="none" xmlns="http://www.w3.org/2000/svg">
<path d="M0 1.5C0 0.671573 0.671573 0 1.5 0H17.5C18.3284 0 19 0.671573 19 1.5C19 2.32843 18.3284 3 17.5 3H1.5C0.671573 3 0 2.32843 0 1.5Z" fill="#403737"/>
<path d="M0 8.5C0 7.67157 0.671573 7 1.5 7H8.5C9.32843 7 10 7.67157 10 8.5C10 9.32843 9.32843 10 8.5 10H1.5C0.671573 10 0 9.32843 0 8.5Z" fill="#403737"/>
<path d="M17 7.5L13.1731 11.7521C12.802 12.1644 12.8375 12.8 13.252 13.1685L17 16.5" stroke="#403737" stroke-width="3" stroke-linecap="round" stroke-linejoin="round"/>
<path d="M0 15.5C0 14.6716 0.671573 14 1.5 14H8.5C9.32843 14 10 14.6716 10 15.5C10 16.3284 9.32843 17 8.5 17H1.5C0.671573 17 0 16.3284 0 15.5Z" fill="#403737"/>
</svg>
