<?xml version="1.0" encoding="UTF-8"?>
<svg width="18px" height="18px" viewBox="0 0 18 18" version="1.1" xmlns="http://www.w3.org/2000/svg" xmlns:xlink="http://www.w3.org/1999/xlink">
    <!-- Generator: Sketch 61 (89581) - https://sketch.com -->
    <title>Fill 1复制 3</title>
    <desc>Created with Sketch.</desc>
    <g id="桌面端" stroke="none" stroke-width="1" fill="none" fill-rule="evenodd">
        <g id="修改机器人信息(1440*900）备份-5" transform="translate(-46.000000, -696.000000)" fill="#2F3032">
            <g id="编组-20" transform="translate(20.000000, 676.000000)">
                <g id="编组-17" transform="translate(0.000000, 10.000000)">
                    <g id="编组-14" transform="translate(26.000000, 10.000000)">
                        <path d="M9.00772906,0 C4.02623785,0 0,4.12565199 0,9.22845199 C0,13.3079693 2.58006991,16.7605085 6.158948,17.9826998 C6.60704598,18.0742129 6.77093025,17.7845475 6.77093025,17.5395042 C6.77093025,17.3262258 6.75542769,16.5926084 6.75542769,15.8287389 C4.25065595,16.3785737 3.72873623,14.7283129 3.72873623,14.7283129 C3.32566951,13.6588955 2.72918983,13.3835999 2.72918983,13.3835999 C1.90903027,12.818639 2.78898544,12.818639 2.78898544,12.818639 C3.69846932,12.8798998 4.17609599,13.766291 4.17609599,13.766291 C4.98075299,15.1715085 6.27853923,14.7744476 6.80045895,14.5294043 C6.87501891,13.9341911 7.11346314,13.5212477 7.36740993,13.2920868 C5.36905536,13.0780521 3.2658739,12.2839303 3.2658739,8.73912168 C3.2658739,7.73096511 3.62390936,6.90583471 4.19086034,6.26448679 C4.10153603,6.03456961 3.78779362,5.08767387 4.28018465,3.81934786 C4.28018465,3.81934786 5.0405486,3.57506085 6.75542769,4.76699991 C7.47149859,4.5688476 8.24736511,4.46145208 9.00772906,4.46145208 C9.76809301,4.46145208 10.5439595,4.5688476 11.2592922,4.76699991 C12.9749095,3.57506085 13.7352735,3.81934786 13.7352735,3.81934786 C14.2269263,5.08767387 13.9139221,6.03456961 13.8245978,6.26448679 C14.4055749,6.90583471 14.748846,7.73096511 14.748846,8.73912168 C14.748846,12.2839303 12.6464028,13.062926 10.6332838,13.2920868 C10.9610524,13.5825085 11.2445279,14.1330997 11.2445279,15.0036085 C11.2445279,16.2409259 11.2297635,17.2339564 11.2297635,17.5395042 C11.2297635,17.7845475 11.3936478,18.0742129 11.8410075,17.9826998 C15.4206239,16.7605085 18,13.3079693 18,9.22845199 C18.0154581,4.12565199 13.9737177,0 9.00772906,0" id="Fill-1复制-3"></path>
                    </g>
                </g>
            </g>
        </g>
    </g>
</svg>