<svg width="18" height="18" viewBox="0 0 18 18" fill="none" xmlns="http://www.w3.org/2000/svg">
    <path
        d="M6.74121 0.0342802C7.27464 -0.108539 7.82291 0.207931 7.96582 0.741311C8.10864 1.27474 7.79217 1.82301 7.25879 1.96592C4.23438 2.77567 2.00014 5.55502 2 8.86338C2 12.8107 5.17728 15.9999 9.08301 16.0001C12.4961 16.0001 15.3544 13.5652 16.0205 10.3155L16.0459 10.2159C16.1974 9.73238 16.694 9.4323 17.2012 9.53623C17.742 9.64726 18.0904 10.176 17.9795 10.7169L17.8916 11.1036C16.8991 15.0625 13.3362 18.0001 9.08301 18.0001C4.06041 17.9999 0 13.903 0 8.86338C0.000140873 4.63503 2.85662 1.07442 6.74121 0.0342802ZM10 0.000100524C14.4183 0.000100524 18 3.58182 18 8.0001C18 8.55239 17.5523 9.0001 17 9.0001H10C9.44771 9.0001 9 8.55239 9 8.0001V1.0001L9.00488 0.897561C9.05621 0.393432 9.48232 0.000100524 10 0.000100524ZM11 7.0001H15.915C15.4934 4.48781 13.5123 2.50565 11 2.08408V7.0001Z"
        fill="#2F3032" />
</svg>