<svg width="16" height="16" viewBox="0 0 16 16" fill="none" xmlns="http://www.w3.org/2000/svg">
<path fill-rule="evenodd" clip-rule="evenodd" d="M13 7.5C13 10.5376 10.5376 13 7.5 13C4.46243 13 2 10.5376 2 7.5C2 4.46243 4.46243 2 7.5 2C10.5376 2 13 4.46243 13 7.5ZM12.0491 13.4634C10.7873 14.4274 9.2105 15 7.5 15C3.35786 15 0 11.6421 0 7.5C0 3.35786 3.35786 0 7.5 0C11.6421 0 15 3.35786 15 7.5C15 9.21057 14.4273 10.7874 13.4633 12.0492L15.7071 14.293C16.0976 14.6835 16.0976 15.3167 15.7071 15.7072C15.3165 16.0977 14.6834 16.0977 14.2928 15.7072L12.0491 13.4634Z" fill="#403737"/>
</svg>
