<?xml version="1.0" encoding="UTF-8"?>
<svg width="18px" height="18px" viewBox="0 0 18 18" version="1.1" xmlns="http://www.w3.org/2000/svg" xmlns:xlink="http://www.w3.org/1999/xlink">
    <!-- Generator: Sketch 61 (89581) - https://sketch.com -->
    <title>形状结合备份 4</title>
    <desc>Created with Sketch.</desc>
    <g id="桌面端" stroke="none" stroke-width="1" fill="none" fill-rule="evenodd">
        <g id="修改机器人信息(1440*900）备份-4" transform="translate(-899.000000, -132.000000)" stroke="#2F3032" stroke-width="2">
            <g id="编组-6" transform="translate(870.000000, 110.000000)">
                <g id="编组-4复制-4">
                    <g id="编组-4" transform="translate(30.000000, 23.000000)">
                        <path d="M6.58823529,9.41176471 L6.58823529,12.7058824 L6.58302067,12.8928098 C6.48611352,14.6251318 5.05067442,16 3.29411765,16 C1.47482671,16 0,14.5251733 0,12.7058824 C0,10.8865914 1.47482671,9.41176471 3.29411765,9.41176471 L3.29411765,9.41176471 L6.58823529,9.41176471 Z M12.7058824,9.41176471 C14.5251733,9.41176471 16,10.8865914 16,12.7058824 C16,14.5251733 14.5251733,16 12.7058824,16 C10.9493256,16 9.51388648,14.6251318 9.41697933,12.8928098 L9.41176471,12.7058824 L9.41176471,9.41176471 L12.7058824,9.41176471 Z M3.29411765,0 C5.05067442,0 6.48611352,1.37486818 6.58302067,3.10719025 L6.58823529,3.29411765 L6.58823529,6.58823529 L3.29411765,6.58823529 C1.47482671,6.58823529 0,5.11340859 0,3.29411765 C0,1.47482671 1.47482671,0 3.29411765,0 Z M12.7058824,0 C14.5251733,0 16,1.47482671 16,3.29411765 C16,5.11340859 14.5251733,6.58823529 12.7058824,6.58823529 L12.7058824,6.58823529 L9.41176471,6.58823529 L9.41176471,3.29411765 L9.41697933,3.10719025 C9.51388648,1.37486818 10.9493256,0 12.7058824,0 Z" id="形状结合备份-4"></path>
                    </g>
                </g>
            </g>
        </g>
    </g>
</svg>