<?xml version="1.0" encoding="UTF-8"?>
<svg width="12px" height="12px" viewBox="0 0 12 12" version="1.1" xmlns="http://www.w3.org/2000/svg" xmlns:xlink="http://www.w3.org/1999/xlink">
    <!-- Generator: Sketch 61 (89581) - https://sketch.com -->
    <title>ic_close</title>
    <desc>Created with Sketch.</desc>
    <g id="移动端" stroke="none" stroke-width="1" fill="none" fill-rule="evenodd">
        <g id="my-app_wallet备份-2" transform="translate(-307.000000, -186.000000)" fill="#B8BDC7" fill-rule="nonzero">
            <g id="编组-6" transform="translate(33.000000, 167.000000)">
                <g id="ic_close" transform="translate(274.000000, 19.000000)">
                    <g id="形状结合">
                        <path d="M11.3622264,0.637773576 C11.7852944,1.06084156 11.7852944,1.74677029 11.3622264,2.16983827 L7.53147259,5.99947259 L11.3622264,9.83016173 C11.7550753,10.2230106 11.7831359,10.8425097 11.4464083,11.2677372 L11.3622264,11.3622264 C10.9391584,11.7852944 10.2532297,11.7852944 9.83016173,11.3622264 L9.83016173,11.3622264 L5.99947259,7.53147259 L2.16983827,11.3622264 C1.74677029,11.7852944 1.06084156,11.7852944 0.637773576,11.3622264 C0.214705593,10.9391584 0.214705593,10.2532297 0.637773576,9.83016173 L4.46747259,5.99947259 L0.637773576,2.16983827 C0.244924735,1.77698943 0.216864103,1.15749025 0.553591681,0.73226279 L0.637773576,0.637773576 C1.06084156,0.214705593 1.74677029,0.214705593 2.16983827,0.637773576 L2.16983827,0.637773576 L5.99947259,4.46747259 L9.83016173,0.637773576 C10.2532297,0.214705593 10.9391584,0.214705593 11.3622264,0.637773576 Z"></path>
                    </g>
                </g>
            </g>
        </g>
    </g>
</svg>