<?xml version="1.0" encoding="UTF-8"?>
<svg width="30px" height="23px" viewBox="0 0 30 23" version="1.1" xmlns="http://www.w3.org/2000/svg" xmlns:xlink="http://www.w3.org/1999/xlink">
    <!-- Generator: Sketch 61 (89581) - https://sketch.com -->
    <title>形状备份</title>
    <desc>Created with Sketch.</desc>
    <g id="移动端" stroke="none" stroke-width="1" fill="none" fill-rule="evenodd">
        <g id="添加app" transform="translate(-55.000000, -179.000000)" fill="#A9B0BF" fill-rule="nonzero">
            <g id="编组-2" transform="translate(20.000000, 108.000000)">
                <path d="M62.65625,84.5762496 L62.65625,73.3154362 L37.34375,73.3154362 L37.34375,84.3846107 L43.6965994,78.5226065 C44.294919,77.9705153 45.2231531,77.9683037 45.8241613,78.5175374 L55.7190775,87.5600442 L54.2566103,84.2764067 L57.2114615,81.5498585 C57.8097811,80.9977673 58.7380151,80.9955557 59.3390233,81.5447893 L62.65625,84.5762496 Z M36.25,71 L63.75,71 C64.4403559,71 65,71.5528833 65,72.2348993 L65,92.7651007 C65,93.4471167 64.4403559,94 63.75,94 L36.25,94 C35.5596441,94 35,93.4471167 35,92.7651007 L35,72.2348993 C35,71.5528833 35.5596441,71 36.25,71 Z" id="形状备份"></path>
            </g>
        </g>
    </g>
</svg>