<?xml version="1.0" encoding="UTF-8"?>
<svg width="16px" height="17px" viewBox="0 0 16 17" version="1.1" xmlns="http://www.w3.org/2000/svg" xmlns:xlink="http://www.w3.org/1999/xlink">
    <!-- Generator: Sketch 61 (89581) - https://sketch.com -->
    <title>icon/App Secret</title>
    <desc>Created with Sketch.</desc>
    <g id="移动端" stroke="none" stroke-width="1" fill="none" fill-rule="evenodd">
        <g id="my-app_Secret" transform="translate(-41.000000, -177.000000)">
            <g id="App-Secret" transform="translate(20.000000, 152.000000)">
                <g id="编组-3" transform="translate(20.000000, 24.000000)">
                    <g id="icon/App-Secret">
                        <rect id="矩形" x="0" y="0" width="18" height="18"></rect>
                        <path d="M9,1 C11.7614237,1 14,3.23857625 14,6 L14,6 L14,7 C15.6568542,7 17,8.34314575 17,10 L17,15 C17,16.6568542 15.6568542,18 14,18 L4,18 C2.34314575,18 1,16.6568542 1,15 L1,10 C1,8.34314575 2.34314575,7 4,7 L4,6 C4,3.23857625 6.23857625,1 9,1 Z M14,9 L4,9 C3.44771525,9 3,9.44771525 3,10 L3,15 C3,15.5522847 3.44771525,16 4,16 L14,16 C14.5522847,16 15,15.5522847 15,15 L15,10 C15,9.44771525 14.5522847,9 14,9 Z M9,3 C7.34314575,3 6,4.34314575 6,6 L6,6 L6,7 L12,7 L12,6 C12,4.40231912 10.75108,3.09633912 9.17627279,3.00509269 Z" id="形状结合" fill="#B8BDC7" fill-rule="nonzero"></path>
                    </g>
                </g>
            </g>
        </g>
    </g>
</svg>