<?xml version="1.0" encoding="UTF-8"?>
<svg width="40px" height="31px" viewBox="0 0 40 31" version="1.1" xmlns="http://www.w3.org/2000/svg" xmlns:xlink="http://www.w3.org/1999/xlink">
    <!-- Generator: Sketch 61 (89581) - https://sketch.com -->
    <title>形状备份</title>
    <desc>Created with Sketch.</desc>
    <g id="桌面端" stroke="none" stroke-width="1" fill="none" fill-rule="evenodd">
        <g id="1添加机器人(1440*900）" transform="translate(-520.000000, -262.000000)" fill="#A9B0BF" fill-rule="nonzero">
            <g id="编组-4" transform="translate(380.000000, 110.000000)">
                <g id="Group-14">
                    <g id="Group-13" transform="translate(0.000000, 32.000000)">
                        <path d="M176.875,138.298423 L176.875,123.120805 L143.125,123.120805 L143.125,138.040127 L151.595466,130.139165 C152.393225,129.395042 153.630871,129.392062 154.432215,130.132333 L167.625437,142.32006 L165.67548,137.894287 L169.615282,134.219375 C170.413041,133.475252 171.650687,133.472271 172.452031,134.212542 L176.875,138.298423 Z M141.666667,120 L178.333333,120 C179.253808,120 180,120.74519 180,121.66443 L180,149.33557 C180,150.25481 179.253808,151 178.333333,151 L141.666667,151 C140.746192,151 140,150.25481 140,149.33557 L140,121.66443 C140,120.74519 140.746192,120 141.666667,120 Z" id="形状备份"></path>
                    </g>
                </g>
            </g>
        </g>
    </g>
</svg>