<svg width="24" height="24" viewBox="0 0 24 24" fill="none" xmlns="http://www.w3.org/2000/svg">
<path fill-rule="evenodd" clip-rule="evenodd" d="M9 4C10.5977 4 11.9037 5.24892 11.9949 6.82373L12 7C12 5.34315 13.3431 4 15 4L21 4C21.5523 4 22 4.44772 22 5V18C22 18.5523 21.5523 19 21 19L15.5528 19.0006C14.955 19.0007 14.4423 19.3416 13.9962 19.7395V19.7395C13.4659 20.2125 12.7665 20.5 12 20.5C11.2443 20.5 10.5538 20.2206 10.0263 19.7594V19.7594C9.56203 19.3535 9.03409 19.0007 8.41742 19.0006L3 19C2.44772 19 2 18.5523 2 18V5C2 4.48716 2.38604 4.06449 2.88338 4.00673L3 4L9 4Z" stroke="#2F3032" stroke-width="2"/>
<path d="M11 7H13V13C13 13.5523 12.5523 14 12 14C11.4477 14 11 13.5523 11 13V7Z" fill="#2F3032"/>
</svg>
