<svg width="28" height="24" viewBox="0 0 28 24" fill="none" xmlns="http://www.w3.org/2000/svg">
<path d="M25 10H27V16C27 16.5523 26.5523 17 26 17C25.4477 17 25 16.5523 25 16V10Z" fill="#2F3032"/>
<path d="M22 13V16.2875C22 16.7483 21.8427 17.1949 21.5187 17.5225C20.4462 18.6065 17.6633 21 14 21C10.3367 21 7.55384 18.6065 6.48135 17.5225C6.15725 17.1949 6 16.7483 6 16.2875V13" stroke="#2F3032" stroke-width="2"/>
<path fill-rule="evenodd" clip-rule="evenodd" d="M13.5259 3.25528C13.8219 3.09591 14.1781 3.09591 14.4741 3.25528L25.5284 9.20758C26.1594 9.54739 26.1594 10.4526 25.5284 10.7924L14.4741 16.7447C14.1781 16.9041 13.8219 16.9041 13.5259 16.7447L2.47164 10.7924C1.84056 10.4526 1.84056 9.54739 2.47164 9.20758L13.5259 3.25528Z" stroke="#2F3032" stroke-width="2"/>
</svg>
