<svg width="24" height="24" viewBox="0 0 24 24" fill="none" xmlns="http://www.w3.org/2000/svg">
<path fill-rule="evenodd" clip-rule="evenodd" d="M12 4C20.5819 4 22.2828 10.526 22.3915 15.2423C22.4558 18.0329 20.0109 20 17.2195 20V20C17.085 20 16.962 19.924 16.9018 19.8036L16.3416 18.6833C15.5194 17.0388 13.8386 16 12 16V16C10.1614 16 8.48059 17.0388 7.65835 18.6833L7.09811 19.8038C7.03797 19.924 6.91505 20 6.78058 20V20C3.99179 20 1.54893 18.0352 1.61174 15.2471C1.71798 10.5304 3.41521 4 12 4Z" stroke="#2F3032" stroke-width="2"/>
<path fill-rule="evenodd" clip-rule="evenodd" d="M6.7428 13.0016C6.7428 13.553 7.1914 14 7.7428 14C8.2942 14 8.7428 13.553 8.7428 13.0016V12H9.7444C10.2958 12 10.7428 11.5514 10.7428 11C10.7428 10.4486 10.2958 10 9.7444 10H8.7428V8.9984C8.7428 8.447 8.2942 8 7.7428 8C7.1914 8 6.7428 8.447 6.7428 8.9984V10H5.7412C5.1898 10 4.7428 10.4486 4.7428 11C4.7428 11.5514 5.1898 12 5.7412 12H6.7428V13.0016ZM15.7428 11.5C16.5712 11.5 17.2428 10.8284 17.2428 10C17.2428 9.17157 16.5712 8.5 15.7428 8.5C14.9144 8.5 14.2428 9.17157 14.2428 10C14.2428 10.8284 14.9144 11.5 15.7428 11.5ZM18.7428 14.5C19.5712 14.5 20.2428 13.8284 20.2428 13C20.2428 12.1716 19.5712 11.5 18.7428 11.5C17.9144 11.5 17.2428 12.1716 17.2428 13C17.2428 13.8284 17.9144 14.5 18.7428 14.5Z" fill="#2F3032"/>
</svg>
