<svg width="24" height="24" viewBox="0 0 24 24" fill="none" xmlns="http://www.w3.org/2000/svg">
<circle cx="12" cy="12" r="9" stroke="#2F3032" stroke-width="2"/>
<circle cx="12" cy="12" r="3" stroke="#2F3032" stroke-width="2"/>
<rect x="3" y="8" width="8.99609" height="2" fill="#C4C4C4"/>
<path fill-rule="evenodd" clip-rule="evenodd" d="M16 10.8321L19.7757 7.05644L21.1899 8.47065L15.6605 14.0001H20.9922V16.0001H13.1685L16.9445 19.7761L15.5303 21.1903L9.99999 15.66V21.0001H7.99999V13.1753L4.22207 16.9532L2.80786 15.539L8.34675 10.0001H2.99999V8.00007H10.8253L7.0505 4.22525L8.46472 2.81104L14 8.34631V3.00397H16V10.8321ZM14.832 12.0001H14V9.99816L13.4117 10.5864L11.9961 9.17083V10.0001H9.99137L10.5833 10.592L9.17127 12.004H9.99999V13.9982L10.5833 13.4149L11.9961 14.8277V14.0001H13.9969L13.4145 13.4176L14.832 12.0001Z" fill="#2F3032"/>
</svg>
