<?xml version="1.0" encoding="UTF-8"?>
<svg width="16px" height="17px" viewBox="0 0 16 17" version="1.1" xmlns="http://www.w3.org/2000/svg" xmlns:xlink="http://www.w3.org/1999/xlink">
    <!-- Generator: Sketch 61 (89581) - https://sketch.com -->
    <title>形状结合</title>
    <desc>Created with Sketch.</desc>
    <g id="桌面端" stroke="none" stroke-width="1" fill="none" fill-rule="evenodd">
        <g id="修改机器人信息(1440*900）备份-4" transform="translate(-410.000000, -132.000000)" fill="#2F3032" fill-rule="nonzero">
            <g id="编组-2" transform="translate(380.000000, 110.000000)">
                <g id="编组-4复制-3">
                    <g id="icon/App-Secret" transform="translate(30.000000, 22.000000)">
                        <path d="M8,3.06421555e-14 C10.7614237,3.06421555e-14 13,2.23857625 13,5 L13,5 L13,6 C14.6568542,6 16,7.34314575 16,9 L16,14 C16,15.6568542 14.6568542,17 13,17 L3,17 C1.34314575,17 0,15.6568542 0,14 L0,9 C0,7.34314575 1.34314575,6 3,6 L3,5 C3,2.23857625 5.23857625,3.06421555e-14 8,3.06421555e-14 Z M13,8 L3,8 C2.44771525,8 2,8.44771525 2,9 L2,14 C2,14.5522847 2.44771525,15 3,15 L13,15 C13.5522847,15 14,14.5522847 14,14 L14,9 C14,8.44771525 13.5522847,8 13,8 Z M8,2 C6.34314575,2 5,3.34314575 5,5 L5,5 L5,6 L11,6 L11,5 C11,3.40231912 9.75108004,2.09633912 8.17627279,2.00509269 Z" id="形状结合"></path>
                    </g>
                </g>
            </g>
        </g>
    </g>
</svg>